<?xml version="1.0" encoding="UTF-8"?>
<svg id="Calque_1" data-name="Calque 1" xmlns="http://www.w3.org/2000/svg" viewBox="0 0 600 600">
  <defs>
    <style>
      .cls-1 {
        fill: #ec8916;
      }

      .cls-2 {
        fill: #036;
      }
    </style>
  </defs>
  <path class="cls-2" d="M211.8,338.19c0,16.61-5.85,30.15-17.56,40.63-11.71,10.49-27,15.73-45.87,15.73-24.47,0-44.48-9.79-60.03-29.36l20.97-19.4c10.31,13.98,23.24,20.97,38.8,20.97,9.26,0,16.95-2.66,23.07-8,6.11-5.33,9.18-12.28,9.18-20.84s-3.1-15.42-9.31-20.58c-6.21-5.15-14.29-7.73-24.25-7.73-6.29,0-14.33,1.4-24.12,4.19l-1.83-2.36,41.42-59.77h-64.75l3.67-28.05h112.2l.79,1.84-49.28,63.7c13.28.88,24.42,5.9,33.42,15.07,9,9.18,13.5,20.49,13.5,33.95Z"/>
  <path class="cls-2" d="M331.74,257.88c-10.91-10.23-24.5-15.41-40.77-15.59-7.32,0-13.7,1.2-19.12,3.65,1.74-2.45,4.79-6.24,9.17-11.4,4.36-5.16,7.41-8.78,9.17-10.88l14.67-18.21h-35.13l-9.97,13.25c-9.77,12.74-16.87,22.28-21.23,28.55-4.36,6.3-8.75,14.39-13.11,24.25-4.36,9.89-6.55,19.12-6.55,27.67,0,17.47,6.04,31.68,18.09,42.6,12.05,10.94,27.61,16.38,46.67,16.38s34.33-5.67,46.39-17.04c12.05-11.34,18.09-25.87,18.09-43.51,0-16.27-5.47-29.49-16.38-39.72ZM307.89,321.7c-6.38,6.13-14.39,9.17-23.99,9.17s-17.67-3.05-24.13-9.17c-6.47-6.1-9.69-13.7-9.69-22.79s3.19-16.73,9.57-22.94c6.38-6.21,14.36-9.32,23.99-9.32s17.86,3.08,24.25,9.17c6.38,6.13,9.57,13.73,9.57,22.82s-3.19,16.95-9.57,23.05Z"/>
  <g>
    <path class="cls-2" d="M224.9,377.67l2.45.61c3.04.75,4.56,2.29,4.56,4.61,0,1.43-.55,2.57-1.64,3.43-1.1.86-2.54,1.29-4.32,1.29-2.43,0-4.51-.6-6.24-1.78l.82-1.76c.88.61,1.73,1.04,2.55,1.3.82.25,1.77.38,2.86.38,1.21,0,2.17-.24,2.88-.74.71-.49,1.07-1.17,1.07-2.04,0-1.43-.96-2.37-2.88-2.83l-2.73-.64c-2.89-.68-4.33-2.16-4.33-4.44,0-1.36.55-2.45,1.66-3.26,1.1-.82,2.57-1.22,4.41-1.22,1.94,0,3.76.53,5.46,1.58l-.92,1.71c-1.55-.95-3.14-1.43-4.77-1.43-1.17,0-2.1.23-2.79.69-.69.46-1.03,1.08-1.03,1.86,0,1.29.99,2.18,2.96,2.68Z"/>
    <path class="cls-2" d="M241.77,386.15c-1.02.97-2.13,1.45-3.34,1.45-1.36,0-2.37-.38-3.02-1.13s-.98-1.76-.98-3.02v-6.25h-2.22l.23-1.81h1.99v-2.68l1.78-1.27h.15v3.95h4.82l-.23,1.81h-4.59v6.14c0,.81.2,1.42.6,1.81.4.39.91.58,1.54.58.73-.01,1.51-.4,2.34-1.15l.92,1.55Z"/>
    <path class="cls-2" d="M244.73,381.16v6.22h-1.94v-11.98h1.84v2.42c.92-1.8,2.17-2.7,3.77-2.7.66,0,1.24.13,1.73.38l-.59,1.91c-.44-.22-.94-.33-1.5-.33-.73,0-1.42.26-2.06.79-.83.71-1.25,1.81-1.25,3.29Z"/>
    <path class="cls-2" d="M258.98,387.38v-1.66c-1.5,1.26-3.05,1.89-4.67,1.89-1.33,0-2.42-.32-3.28-.97-.86-.65-1.29-1.55-1.29-2.7s.46-2.14,1.38-2.8c.92-.66,2.1-.99,3.54-.99,1.27,0,2.67.35,4.18,1.07v-.36c0-1.38-.31-2.37-.94-2.98-.66-.65-1.5-.97-2.52-.97-1.55,0-2.84.48-3.87,1.45l-1.07-1.35c1.31-1.22,2.95-1.84,4.92-1.84,1.56,0,2.86.47,3.9,1.4.98.9,1.48,2.11,1.48,3.62v7.19h-1.76ZM251.77,383.91c0,.61.25,1.1.74,1.47.49.37,1.15.55,1.96.55,1.56,0,3.03-.59,4.38-1.76v-1.35c-1.5-.68-2.91-1.02-4.26-1.02-.87,0-1.56.19-2.06.56-.51.38-.77.89-.77,1.55Z"/>
    <path class="cls-2" d="M270.99,386.15c-1.02.97-2.13,1.45-3.34,1.45-1.36,0-2.37-.38-3.02-1.13s-.98-1.76-.98-3.02v-6.25h-2.22l.23-1.81h1.99v-2.68l1.78-1.27h.15v3.95h4.82l-.23,1.81h-4.59v6.14c0,.81.2,1.42.6,1.81.4.39.91.58,1.54.58.73-.01,1.51-.4,2.34-1.15l.92,1.55Z"/>
    <path class="cls-2" d="M282.91,385.19c-.58.76-1.33,1.36-2.27,1.78-.94.42-1.94.64-3.01.64-1.77,0-3.25-.55-4.44-1.66-1.31-1.2-1.96-2.73-1.96-4.56s.64-3.36,1.91-4.54c1.21-1.12,2.63-1.68,4.28-1.68s3.12.54,4.26,1.61c1.21,1.11,1.81,2.56,1.81,4.36v.92h-10.25c.12,1.02.54,1.88,1.27,2.57.83.78,1.87,1.17,3.11,1.17,1.51,0,2.85-.64,4-1.91l1.27,1.3ZM274.45,378.13c-.58.54-.96,1.29-1.15,2.24h8.21c-.14-.95-.52-1.73-1.15-2.32-.77-.71-1.74-1.07-2.93-1.07s-2.17.38-2.98,1.15ZM276.62,373.39l1.89-3.82h2.7l.03.1-3.21,3.72h-1.4Z"/>
    <path class="cls-2" d="M295.2,390.97c-1.17,1.09-2.67,1.63-4.49,1.63-1.27,0-2.42-.25-3.43-.75-1.01-.5-1.77-1.2-2.28-2.1l1.45-1.15c.95,1.46,2.39,2.19,4.31,2.19,1.33,0,2.38-.4,3.17-1.18.79-.79,1.19-1.87,1.19-3.25v-1.5c-1.07,1.51-2.56,2.27-4.46,2.27-1.61,0-3.01-.52-4.18-1.55-1.27-1.12-1.91-2.61-1.91-4.46,0-.83.17-1.63.52-2.4.35-.77.82-1.41,1.42-1.94,1.21-1.07,2.6-1.61,4.18-1.61,2.07,0,3.57.71,4.49,2.12v-1.89h1.89v10.81c0,2.04-.62,3.63-1.86,4.77ZM290.82,385.31c1.19,0,2.22-.39,3.09-1.17.88-.83,1.33-1.84,1.33-3.03s-.44-2.18-1.33-3.01c-.85-.77-1.87-1.15-3.06-1.15s-2.18.38-3.03,1.15c-.85.8-1.27,1.8-1.27,3.01s.42,2.26,1.27,3.06c.85.77,1.85,1.15,3.01,1.15Z"/>
    <path class="cls-2" d="M301.55,372.21c-.26.26-.57.38-.94.38s-.69-.13-.94-.38-.38-.57-.38-.94.13-.69.38-.94c.25-.26.57-.38.94-.38s.69.13.94.38c.25.25.38.57.38.94s-.13.69-.38.94ZM301.57,387.38h-1.94v-11.98h1.94v11.98Z"/>
    <path class="cls-2" d="M315.06,385.19c-.58.76-1.33,1.36-2.27,1.78-.94.42-1.94.64-3.01.64-1.77,0-3.25-.55-4.44-1.66-1.31-1.2-1.96-2.73-1.96-4.56s.64-3.36,1.91-4.54c1.21-1.12,2.63-1.68,4.28-1.68s3.12.54,4.26,1.61c1.21,1.11,1.81,2.56,1.81,4.36v.92h-10.25c.12,1.02.54,1.88,1.27,2.57.83.78,1.87,1.17,3.11,1.17,1.51,0,2.85-.64,4-1.91l1.27,1.3ZM306.6,378.13c-.58.54-.96,1.29-1.15,2.24h8.21c-.14-.95-.52-1.73-1.15-2.32-.77-.71-1.74-1.07-2.93-1.07s-2.17.38-2.98,1.15Z"/>
    <path class="cls-2" d="M344.8,373.33l-1.4,1.4c-1.34-1.53-3.01-2.29-5-2.29-1.75,0-3.28.61-4.59,1.84-1.29,1.29-1.94,2.89-1.94,4.79s.63,3.58,1.89,4.84c1.29,1.21,2.84,1.81,4.64,1.81,2.02,0,3.73-.77,5.12-2.32l1.38,1.3c-1.61,1.94-3.78,2.91-6.5,2.91-2.36,0-4.35-.76-5.96-2.27-.82-.73-1.45-1.64-1.9-2.74-.45-1.1-.67-2.25-.67-3.48s.23-2.37.7-3.48c.47-1.11,1.11-2.03,1.92-2.76,1.61-1.53,3.58-2.3,5.91-2.3,2.67,0,4.8.92,6.4,2.75Z"/>
    <path class="cls-2" d="M348.22,381.16v6.22h-1.94v-11.98h1.84v2.42c.92-1.8,2.17-2.7,3.77-2.7.66,0,1.24.13,1.73.38l-.59,1.91c-.44-.22-.94-.33-1.5-.33-.73,0-1.42.26-2.06.79-.83.71-1.25,1.81-1.25,3.29Z"/>
    <path class="cls-2" d="M364.74,385.19c-.58.76-1.33,1.36-2.27,1.78-.94.42-1.94.64-3.01.64-1.77,0-3.25-.55-4.44-1.66-1.31-1.2-1.96-2.73-1.96-4.56s.64-3.36,1.91-4.54c1.21-1.12,2.63-1.68,4.28-1.68s3.12.54,4.26,1.61c1.21,1.11,1.81,2.56,1.81,4.36v.92h-10.25c.12,1.02.54,1.88,1.27,2.57.83.78,1.87,1.17,3.11,1.17,1.51,0,2.85-.64,4-1.91l1.27,1.3ZM356.28,378.13c-.58.54-.96,1.29-1.15,2.24h8.21c-.14-.95-.52-1.73-1.15-2.32-.77-.71-1.74-1.07-2.93-1.07s-2.17.38-2.98,1.15ZM358.44,373.39l1.89-3.82h2.7l.03.1-3.21,3.72h-1.4Z"/>
    <path class="cls-2" d="M375.44,387.38v-1.66c-1.5,1.26-3.05,1.89-4.67,1.89-1.33,0-2.42-.32-3.28-.97-.86-.65-1.29-1.55-1.29-2.7s.46-2.14,1.38-2.8c.92-.66,2.1-.99,3.54-.99,1.27,0,2.67.35,4.18,1.07v-.36c0-1.38-.31-2.37-.94-2.98-.66-.65-1.5-.97-2.52-.97-1.55,0-2.84.48-3.87,1.45l-1.07-1.35c1.31-1.22,2.95-1.84,4.92-1.84,1.56,0,2.86.47,3.9,1.4.98.9,1.48,2.11,1.48,3.62v7.19h-1.76ZM368.23,383.91c0,.61.25,1.1.74,1.47.49.37,1.15.55,1.96.55,1.56,0,3.03-.59,4.38-1.76v-1.35c-1.5-.68-2.91-1.02-4.26-1.02-.87,0-1.56.19-2.06.56-.51.38-.77.89-.77,1.55Z"/>
    <path class="cls-2" d="M387.45,386.15c-1.02.97-2.13,1.45-3.34,1.45-1.36,0-2.37-.38-3.02-1.13s-.98-1.76-.98-3.02v-6.25h-2.22l.23-1.81h1.99v-2.68l1.78-1.27h.15v3.95h4.82l-.23,1.81h-4.59v6.14c0,.81.2,1.42.6,1.81.4.39.91.58,1.54.58.73-.01,1.51-.4,2.34-1.15l.92,1.55Z"/>
    <path class="cls-2" d="M390.38,372.21c-.26.26-.57.38-.94.38s-.69-.13-.94-.38-.38-.57-.38-.94.13-.69.38-.94c.25-.26.57-.38.94-.38s.69.13.94.38c.25.25.38.57.38.94s-.13.69-.38.94ZM390.41,387.38h-1.94v-11.98h1.94v11.98Z"/>
    <path class="cls-2" d="M398.54,375.17c1.7,0,3.15.56,4.36,1.68,1.31,1.21,1.96,2.72,1.96,4.54s-.65,3.33-1.96,4.54c-1.21,1.12-2.66,1.68-4.36,1.68s-3.15-.56-4.36-1.68c-1.31-1.21-1.96-2.72-1.96-4.54s.65-3.33,1.96-4.54c1.21-1.12,2.66-1.68,4.36-1.68ZM398.54,376.98c-1.21,0-2.23.39-3.06,1.17-.87.83-1.3,1.91-1.3,3.24s.43,2.41,1.3,3.24c.83.78,1.85,1.17,3.06,1.17s2.23-.39,3.06-1.17c.87-.83,1.3-1.91,1.3-3.24s-.43-2.4-1.3-3.24c-.83-.78-1.85-1.17-3.06-1.17Z"/>
    <path class="cls-2" d="M408.61,380.83v6.55h-1.94v-11.98h1.86v2.14c.44-.78,1.03-1.37,1.76-1.77.73-.4,1.51-.6,2.34-.6,1.53,0,2.74.47,3.65,1.4.95.99,1.43,2.27,1.43,3.85v6.96h-1.94v-6.58c0-1.16-.34-2.1-1.02-2.83-.61-.63-1.42-.94-2.42-.94s-1.81.3-2.47.89c-.83.75-1.25,1.72-1.25,2.91Z"/>
    <path class="cls-2" d="M437.84,387.38v-16.57h1.99v16.57h-1.99Z"/>
    <path class="cls-2" d="M444.72,380.75v6.63h-1.94v-11.98h1.86v1.89c1.02-1.41,2.36-2.12,4.03-2.12,1.46,0,2.64.47,3.54,1.4.34.38.6.73.79,1.07,1.09-1.65,2.63-2.47,4.61-2.47,1.48,0,2.67.47,3.57,1.4.95.99,1.43,2.26,1.43,3.82v6.99h-1.94v-6.65c0-1.16-.32-2.08-.97-2.78-.59-.61-1.39-.92-2.4-.92s-1.78.29-2.42.87c-.82.73-1.22,1.68-1.22,2.85v6.63h-1.94v-6.65c0-1.14-.33-2.06-.99-2.78-.59-.61-1.39-.92-2.37-.92s-1.78.29-2.42.87c-.81.73-1.22,1.68-1.22,2.85Z"/>
    <path class="cls-2" d="M471.36,387.61c-2.07,0-3.57-.73-4.49-2.19v7.06h-1.94v-17.08h1.86v2.27c1.02-1.67,2.54-2.5,4.56-2.5,1.65,0,3.05.54,4.21,1.61,1.31,1.21,1.96,2.75,1.96,4.61s-.65,3.36-1.96,4.56c-1.19,1.11-2.59,1.66-4.21,1.66ZM471.21,376.98c-1.19,0-2.21.4-3.06,1.2-.88.85-1.33,1.92-1.33,3.21s.44,2.36,1.33,3.21c.85.8,1.87,1.2,3.06,1.2s2.21-.4,3.06-1.2c.88-.85,1.33-1.92,1.33-3.21s-.44-2.36-1.33-3.21c-.85-.8-1.87-1.2-3.06-1.2Z"/>
    <path class="cls-2" d="M487.6,387.38v-1.66c-1.5,1.26-3.05,1.89-4.67,1.89-1.33,0-2.42-.32-3.28-.97s-1.29-1.55-1.29-2.7.46-2.14,1.38-2.8c.92-.66,2.1-.99,3.54-.99,1.27,0,2.67.35,4.18,1.07v-.36c0-1.38-.31-2.37-.94-2.98-.66-.65-1.5-.97-2.52-.97-1.55,0-2.84.48-3.87,1.45l-1.07-1.35c1.31-1.22,2.95-1.84,4.92-1.84,1.56,0,2.86.47,3.9,1.4.98.9,1.48,2.11,1.48,3.62v7.19h-1.76ZM480.39,383.91c0,.61.25,1.1.74,1.47.49.37,1.15.55,1.96.55,1.56,0,3.03-.59,4.38-1.76v-1.35c-1.5-.68-2.91-1.02-4.26-1.02-.87,0-1.56.19-2.06.56-.51.38-.77.89-.77,1.55Z"/>
    <path class="cls-2" d="M501.87,377.06l-1.33,1.27c-.32-.39-.79-.72-1.39-.97-.6-.26-1.24-.38-1.9-.38-1.24,0-2.27.42-3.1,1.26-.82.84-1.24,1.89-1.24,3.15s.41,2.31,1.24,3.15c.82.84,1.86,1.26,3.1,1.26,1.41,0,2.55-.49,3.42-1.48l1.22,1.38c-1.24,1.27-2.78,1.91-4.61,1.91s-3.33-.59-4.52-1.77c-1.2-1.18-1.8-2.66-1.8-4.45s.6-3.27,1.8-4.45c1.2-1.18,2.71-1.77,4.52-1.77.9,0,1.76.17,2.57.5.82.33,1.49.79,2.01,1.39Z"/>
    <path class="cls-2" d="M511,386.15c-1.02.97-2.13,1.45-3.34,1.45-1.36,0-2.37-.38-3.02-1.13s-.98-1.76-.98-3.02v-6.25h-2.22l.23-1.81h1.99v-2.68l1.78-1.27h.15v3.95h4.82l-.23,1.81h-4.59v6.14c0,.81.2,1.42.6,1.81.4.39.91.58,1.54.58.73-.01,1.51-.4,2.34-1.15l.92,1.55Z"/>
    <path class="cls-2" d="M323.79,382.1c-.28.29-.62.43-1.03.43s-.75-.14-1.03-.42c-.28-.28-.42-.62-.42-1.03s.14-.75.42-1.03c.28-.28.62-.42,1.03-.42s.75.14,1.03.42c.28.28.42.62.42,1.03s-.14.73-.42,1.02Z"/>
    <path class="cls-2" d="M430.67,382.1c-.28.29-.62.43-1.03.43s-.75-.14-1.03-.42c-.28-.28-.42-.62-.42-1.03s.14-.75.42-1.03c.28-.28.62-.42,1.03-.42s.75.14,1.03.42c.28.28.42.62.42,1.03s-.14.73-.42,1.02Z"/>
  </g>
  <g>
    <polygon class="cls-1" points="457.75 334.98 469.94 347.18 473.02 350.26 502.88 320.4 487.61 305.12 457.75 334.98"/>
    <rect class="cls-1" x="413.56" y="335.84" width="42.23" height="22.31"/>
    <polygon class="cls-1" points="371.67 315.18 366.68 320.2 396.54 350.06 400.05 346.52 411.59 334.98 381.73 305.12 371.67 315.18"/>
    <rect class="cls-1" x="413.56" y="205.46" width="42.23" height="22.14"/>
    <polygon class="cls-1" points="498.98 247.6 503.82 242.75 473.96 212.89 470.48 216.37 458.12 228.76 487.98 258.62 498.98 247.6"/>
    <rect class="cls-1" x="488.49" y="260.93" width="22.51" height="42.23"/>
    <polygon class="cls-1" points="381.36 258.59 411.22 228.73 396.77 214.29 366.91 244.15 371.53 248.76 381.36 258.59"/>
    <rect class="cls-1" x="358.31" y="260.93" width="22.71" height="42.23"/>
  </g>
</svg>