<?xml version="1.0" encoding="UTF-8"?>
<svg id="Calque_1" data-name="Calque 1" xmlns="http://www.w3.org/2000/svg" viewBox="0 0 600 600">
  <defs>
    <style>
      .cls-1 {
        fill: #ec8916;
      }

      .cls-2 {
        fill: #036;
      }
    </style>
  </defs>
  <polygon class="cls-2" points="361.91 442.57 394.6 475.26 402.85 483.51 482.9 403.46 441.96 362.52 361.91 442.57"/>
  <rect class="cls-2" x="243.44" y="444.86" width="113.2" height="59.81"/>
  <polygon class="cls-2" points="131.16 389.48 117.79 402.93 197.84 482.97 207.23 473.5 238.17 442.57 158.12 362.52 131.16 389.48"/>
  <rect class="cls-2" x="243.44" y="95.33" width="113.2" height="59.35"/>
  <polygon class="cls-2" points="472.43 208.3 485.42 195.32 405.37 115.27 396.05 124.59 362.9 157.81 442.95 237.86 472.43 208.3"/>
  <rect class="cls-2" x="444.32" y="244.05" width="60.34" height="113.2"/>
  <polygon class="cls-2" points="157.13 237.79 237.18 157.74 198.45 119.01 118.4 199.06 130.77 211.43 157.13 237.79"/>
  <rect class="cls-2" x="95.33" y="244.05" width="60.88" height="113.2"/>
  <g>
    <path class="cls-1" d="M260.84,334.66c-4.53-5.78-6.83-12.9-6.83-21.14,0-.97.05-1.95.14-2.91.37-4.07,1.55-8.42,3.49-12.93.77-1.79,1.56-3.5,2.34-5.08.07-.14.14-.28.21-.42-3.03-1.77-6.39-2.89-10.08-3.37l24.16-32.62-.41-.96h-59.24l-2.05,17.34h30.71l-18.43,28.94,1.09,1.5c4.37-1.45,8.28-2.18,11.74-2.18,4.64,0,8.42,1.23,11.33,3.68,2.91,2.46,4.37,5.65,4.37,9.56s-1.41,7.14-4.23,9.69c-2.82,2.55-6.37,3.82-10.65,3.82-7.28,0-13.47-3.36-18.56-10.1l-12.97,12.01c8.46,10.19,19.02,15.29,31.67,15.29,10.03,0,18.1-2.6,24.2-7.78h-.01c-.71-.76-1.38-1.54-2-2.33Z"/>
    <path class="cls-1" d="M319.99,295.41c-.76-.97-1.6-1.9-2.52-2.78-5.51-5.28-12.31-7.96-20.41-8.05-3.37,0-6.51.55-9.42,1.64.64-1.09,4.32-5.68,11.06-13.79l14.33-17.34h-22.39l-12.01,15.83c-4.74,6.38-8.33,11.36-10.78,14.95-1.64,2.4-3.23,5.16-4.77,8.26-.77,1.55-1.52,3.18-2.26,4.91-1.81,4.2-2.88,8.17-3.22,11.89-.08.88-.12,1.74-.12,2.58,0,7.48,2.03,13.82,6.1,19.01.55.71,1.15,1.4,1.78,2.07.53.56,1.09,1.11,1.68,1.65,6.36,5.78,14.61,8.67,24.71,8.67s18.06-2.96,24.43-8.88c3.13-2.91,5.49-6.22,7.08-9.94,1.65-3.85,2.48-8.13,2.48-12.85,0-7.05-1.92-12.99-5.74-17.84ZM302.52,323.82c-2.92,2.78-6.51,4.16-10.78,4.16s-7.85-1.38-10.71-4.16c-2.87-2.77-4.3-6.16-4.3-10.17s1.43-7.4,4.3-10.17c2.86-2.77,6.43-4.16,10.71-4.16s7.87,1.34,10.78,4.03c2.91,2.69,4.37,6.07,4.37,10.17s-1.46,7.53-4.37,10.3Z"/>
    <path class="cls-1" d="M382.51,278.36c-7.01-7.23-15.88-10.85-26.62-10.85s-19.61,3.62-26.62,10.85c-3.54,3.65-6.18,7.84-7.93,12.57,5.53,5.87,8.33,13.36,8.33,22.3,0,6.26-1.32,11.88-3.95,16.83,1.06,1.47,2.25,2.87,3.55,4.19,7.01,7.1,15.88,10.65,26.62,10.65s19.61-3.55,26.62-10.65c7.01-7.1,10.51-16.38,10.51-27.85s-3.5-20.81-10.51-28.05ZM368.93,321.84c-3.42,4-7.76,6.01-13.04,6.01s-9.62-2-13.04-6.01c-3.41-4-5.12-9.15-5.12-15.43,0-6.64,1.68-11.94,5.05-15.9,3.37-3.96,7.73-5.94,13.11-5.94s9.62,2,13.04,6.01c3.41,4.01,5.12,9.28,5.12,15.83s-1.71,11.42-5.12,15.43Z"/>
  </g>
</svg>